- 
http://www.Speed.Cd 
       
http://www.Speed.Cd      fast  and The Hottest Private Tracker on the net

(((--Submit for invite!!--)))

Please Seed back to make the speed Faster!!!

------------------nfo--------------------------
-[img]http://img59.imageshack.us/img59/3671/65051407.jpg[/img]
[pre]
     _______.     ___      .___  ___.  __    __  .______          ___       __  
    /       |    /   \     |   \/   | |  |  |  | |   _  \        /   \     |  | 
   |   (----`   /  ^  \    |  \  /  | |  |  |  | |  |_)  |      /  ^  \    |  | 
    \   \      /  /_\  \   |  |\/|  | |  |  |  | |      /      /  /_\  \   |  | 
.----)   |    /  _____  \  |  |  |  | |  `--'  | |  |\  \----./  _____  \  |  | 
|_______/    /__/     \__\ |__|  |__|  \______/  | _| `._____/__/     \__\ |__| 
                                                                                

Weekender.2011.480p.BRRiP.XViD-SAMURAi

ANOTHER QUALiTY SAMURAi RELEASE!!!

Encoder........: SAMURAi
Video Codec....: XViD
Audio Codec....: Mp3
Audio Bitrate..: 128 kb/s
Subtitles......: N/a
Resolution.....: 720 x 304
Runtime........: 1:29:59
Language.......: English
IMDB Link......: http://www.imdb.com/title/tt1706470/
Genre..........: Drama | Music
Ratings........: 7.2/10 from 15 users
Stars..........: Zawe Ashton, Jack O'Connell and Henry Lloyd-Hughes
Plot...........: 1990. The rave scene has arrived from Ibiza and warehouse 
parties are exploding across the UK bringing phenomenal wealth to the organisers


Format                           : AVI
Format/Info                      : Audio Video Interleave
File size                        : 1.37 GiB
Duration                         : 1h 29mn
Overall bit rate                 : 2 181 Kbps
Writing library                  : VirtualDub build 32842/release

Video
ID                               : 0
Format                           : MPEG-4 Visual
Format profile                   : Advanced Simple@L5
Format settings, BVOP            : 2
Format settings, QPel            : No
Format settings, GMC             : No warppoints
Format settings, Matrix          : Default (H.263)
Muxing mode                      : Packed bitstream
Codec ID                         : XVID
Codec ID/Hint                    : XviD
Duration                         : 1h 29mn
Bit rate                         : 2 044 Kbps
Width                            : 720 pixels
Height                           : 304 pixels
Display aspect ratio             : 2.35:1
Frame rate                       : 23.976 fps
Color space                      : YUV
Chroma subsampling               : 4:2:0
Bit depth                        : 8 bits
Scan type                        : Progressive
Compression mode                 : Lossy
Bits/(Pixel*Frame)               : 0.389
Stream size                      : 1.28 GiB (94%)
Writing library                  : XviD 64

Audio
ID                               : 1
Format                           : MPEG Audio
Format version                   : Version 1
Format profile                   : Layer 3
Mode                             : Joint stereo
Mode extension                   : MS Stereo
Codec ID                         : 55
Codec ID/Hint                    : MP3
Duration                         : 1h 29mn
Bit rate mode                    : Constant
Bit rate                         : 128 Kbps
Channel(s)                       : 2 channels
Sampling rate                    : 48.0 KHz
Compression mode                 : Lossy
Stream size                      : 82.4 MiB (6%)
Alignment                        : Split accross interleaves
Interleave, duration             : 42 ms (1.00 video frame)
Interleave, preload duration     : 500 ms
Writing library                  : LAME3.98r
Encoding settings                : -m j -V 4 -q 2 -lowpass 17 -b 128



Release Notes:
Right here is my attempt to encode "Weekender" BRRiP. added a few filters from the 
source was real nice so not much work needed enjoy.



Screenshots:
[img]http://img684.imageshack.us/img684/9651/vlcsnap2011091817h16m20.png[/img]
[img]http://img707.imageshack.us/img707/1381/vlcsnap2011091817h16m40.png[/img]
[img]http://img577.imageshack.us/img577/2706/vlcsnap2011091817h17m10.png[/img]
[img]http://img13.imageshack.us/img13/4048/vlcsnap2011091817h17m22.png[/img]
[img]http://img196.imageshack.us/img196/9286/vlcsnap2011091817h17m54.png[/img]
[img]http://img220.imageshack.us/img220/7544/vlcsnap2011091817h31m36.png[/img]



Greetz:
ViSiON, SiC, SANTi, IMAGiNE, MEM, LKRG, DTRG, FLAWL3SS, WBZ, NPW,
CM8, UnKnown, ETRG, SaM, Blackjesus, NOiR, EP1C, EMBER...and other p2p
groups past and present good job!

[/pre]